<svg width="634" height="494" viewBox="0 0 634 494" fill="none" xmlns="http://www.w3.org/2000/svg">
<g filter="url(#filter0_d_11_7)">
<mask id="path-1-outside-1_11_7" maskUnits="userSpaceOnUse" x="14.14" y="21.9965" width="582.896" height="442.506" fill="black">
<rect fill="white" x="14.14" y="21.9965" width="582.896" height="442.506"/>
<path d="M596.759 88.5064C596.855 66.4152 579.024 48.4293 556.932 48.3339L20.7937 46.0173C18.5846 46.0078 16.786 47.7909 16.7765 50L15 461.139L548.139 463.443C574.096 463.555 595.229 442.603 595.341 416.646L596.759 88.5064Z"/>
</mask>
<path d="M596.759 88.5064C596.855 66.4152 579.024 48.4293 556.932 48.3339L20.7937 46.0173C18.5846 46.0078 16.786 47.7909 16.7765 50L15 461.139L548.139 463.443C574.096 463.555 595.229 442.603 595.341 416.646L596.759 88.5064Z" fill="url(#paint0_linear_11_7)" fill-opacity="0.4"/>
<path fill-rule="evenodd" clip-rule="evenodd" d="M21.8643 34.0218C21.5056 34.5313 21.1635 35.0533 20.8388 35.587C18.2813 39.7902 16.7993 44.7213 16.7765 50L16.7246 61.9999L16.6901 69.9998L20.69 70.0171L40.6898 70.1035L47.497 70.1329L71.4967 70.2366L71.7041 22.237L47.7044 22.1333L44.8972 22.1212C35.3823 22.0801 26.9553 26.7898 21.8643 34.0218ZM238.16 22.9563L237.953 70.9558L261.952 71.0595L422.794 71.7545L446.794 71.8582L447.001 23.8587L423.001 23.755L262.16 23.06L238.16 22.9563ZM506.229 24.1146L506.022 72.1141L530.022 72.2178L556.829 72.3337C557.259 72.3355 557.688 72.3401 558.114 72.3473C559.755 72.3751 561.37 72.4423 562.954 72.5466C565.292 72.7005 567.563 72.9351 569.749 73.243C570.247 73.3132 570.74 73.3871 571.229 73.4648C571.393 73.4909 571.557 73.5174 571.72 73.5443C575.419 74.1547 578.843 74.9789 581.896 75.9778C582.613 76.2124 583.309 76.4566 583.984 76.71C584.192 76.7879 584.397 76.8666 584.601 76.9462C590.27 79.1655 594.316 82.0441 595.953 85.2636C595.978 85.3124 596.002 85.3613 596.026 85.4103C596.512 86.4131 596.764 87.4483 596.759 88.5063C596.764 87.4519 596.743 86.4032 596.697 85.3611C596.691 85.2295 596.685 85.098 596.678 84.9666C596.48 81.0237 595.926 77.1742 595.045 73.45C594.989 73.2123 594.931 72.9752 594.872 72.7385C593.922 68.9163 592.628 65.2294 591.025 61.7126C589.75 58.9167 588.28 56.2284 586.632 53.6652C585.81 52.3861 584.943 51.1383 584.035 49.9237C582.498 47.8695 580.84 45.9105 579.072 44.0575C577.153 42.046 575.104 40.1592 572.939 38.4106C572.505 38.0602 572.066 37.7154 571.623 37.3762C571.094 36.9709 570.558 36.5737 570.015 36.1848C567.327 34.2566 564.482 32.5315 561.504 31.032C560.039 30.2946 558.542 29.6118 557.016 28.9862C549.618 25.9541 541.523 24.2671 533.036 24.2304L530.229 24.2183L506.229 24.1146Z" fill="url(#paint1_linear_11_7)" fill-opacity="0.56" mask="url(#path-1-outside-1_11_7)"/>
</g>
<defs>
<filter id="filter0_d_11_7" x="0" y="0.120941" width="633.76" height="493.322" filterUnits="userSpaceOnUse" color-interpolation-filters="sRGB">
<feFlood flood-opacity="0" result="BackgroundImageFix"/>
<feColorMatrix in="SourceAlpha" type="matrix" values="0 0 0 0 0 0 0 0 0 0 0 0 0 0 0 0 0 0 127 0" result="hardAlpha"/>
<feMorphology radius="12" operator="dilate" in="SourceAlpha" result="effect1_dropShadow_11_7"/>
<feOffset dx="11" dy="4"/>
<feGaussianBlur stdDeviation="7"/>
<feColorMatrix type="matrix" values="0 0 0 0 0 0 0 0 0 0 0 0 0 0 0 0 0 0 0.25 0"/>
<feBlend mode="multiply" in2="BackgroundImageFix" result="effect1_dropShadow_11_7"/>
<feBlend mode="normal" in="SourceGraphic" in2="effect1_dropShadow_11_7" result="shape"/>
</filter>
<linearGradient id="paint0_linear_11_7" x1="568.047" y1="142.455" x2="299.257" y2="457.433" gradientUnits="userSpaceOnUse">
<stop stop-color="#B146EB"/>
<stop offset="0.230769" stop-color="#9B47C8"/>
<stop offset="0.5" stop-color="#52489F"/>
<stop offset="0.75" stop-color="#684979"/>
<stop offset="1" stop-color="#4F4A52"/>
</linearGradient>
<linearGradient id="paint1_linear_11_7" x1="306.863" y1="47.2534" x2="305.069" y2="462.392" gradientUnits="userSpaceOnUse">
<stop stop-color="#52489F"/>
<stop offset="0.317308" stop-color="#31CB43"/>
<stop offset="0.528846" stop-color="#328442"/>
<stop offset="1" stop-color="#1D1A39"/>
</linearGradient>
</defs>
</svg>
